<svg width="190" height="176" fill="none" xmlns="http://www.w3.org/2000/svg"><path d="M95.043 71.095c14.232 0 25.935-11.691 25.935-25.91 0-14.22-11.703-25.91-25.935-25.91-14.233 0-25.935 11.69-25.935 25.91 0 14.219 11.702 25.91 25.935 25.91zm0-45.185c10.753 0 19.609 8.848 19.609 19.59 0 10.744-8.856 19.592-19.61 19.592-10.753 0-19.608-8.848-19.608-19.591s8.855-19.59 19.609-19.59zm57.562 25.91c14.233 0 25.935-11.69 25.935-25.91C178.54 11.691 166.838 0 152.605 0c-14.232 0-25.934 11.691-25.934 25.91 0 14.22 11.702 25.91 25.934 25.91zm0-45.184c10.754 0 19.609 8.847 19.609 19.59s-8.855 19.59-19.609 19.59c-10.753 0-19.609-8.847-19.609-19.59s8.856-19.59 19.609-19.59zM37.48 51.82c14.233 0 25.935-11.69 25.935-25.91C63.415 11.691 51.713 0 37.48 0 23.248 0 11.546 11.691 11.546 25.91c0 14.22 11.702 25.91 25.934 25.91zm0-45.184c10.754 0 19.61 8.847 19.61 19.59s-8.856 19.59-19.61 19.59c-10.753 0-19.609-8.847-19.609-19.59s8.856-19.59 19.61-19.59zm152.446 73.939l-5.377 41.709c-.316 1.58-1.581 2.843-3.162 2.843h-8.856v30.334c0 1.896-1.265 3.16-3.163 3.16h-33.842c-1.897 0-3.162-1.264-3.162-3.16v-12.323c.316-.948.632-1.58.948-2.528l2.847-21.486c1.581.316 2.846 1.58 2.846 3.16v30.334h27.516v-30.334c0-1.896 1.266-3.16 3.163-3.16h9.172l4.744-39.497c.317-2.528-.316-4.74-1.897-6.636-1.582-1.896-3.796-2.844-6.326-2.844h-45.544c-2.53 0-4.744.948-6.325 2.844-.633.632-.949 1.58-1.265 2.212-1.265-.316-2.847-.316-4.112-.316h-2.214c.633-2.212 1.581-4.108 3.163-6.004 2.846-3.16 6.958-5.055 11.07-5.055h45.543c4.112 0 8.224 1.895 11.07 5.055 2.847 3.16 3.479 7.584 3.163 11.692zM56.773 140.61c0 .948.316 1.896.95 2.528v12.323c0 1.896-1.266 3.16-3.164 3.16H20.718c-1.898 0-3.163-1.264-3.163-3.16v-30.334H8.699c-1.581 0-2.846-1.263-3.163-2.843L.16 80.574c-.633-4.107.632-8.53 3.479-11.69 2.846-3.16 6.958-5.056 11.07-5.056h45.543c4.112 0 8.223 1.895 11.07 5.055 1.581 1.896 2.53 3.792 3.163 6.004H72.27c-1.582 0-2.847 0-4.112.316-.316-.948-.632-1.58-1.265-2.212-1.581-1.896-3.795-2.844-6.325-2.844h-45.86c-2.53 0-4.745.948-6.326 2.844-1.582 1.896-2.214 4.108-1.898 6.636l5.06 39.181h9.173c1.897 0 3.162 1.264 3.162 3.16v30.334h27.517v-30.334c0-1.58 1.265-2.844 2.846-3.16l2.53 21.802zm72.111-54.348c-2.846-3.16-6.958-5.055-11.069-5.055H72.271c-4.112 0-8.223 1.895-11.07 5.055-2.846 3.16-4.111 7.268-3.479 11.691l5.377 41.709c.316 1.58 1.581 2.844 3.163 2.844h8.855v30.334c0 1.896 1.265 3.16 3.163 3.16h33.842c1.897 0 3.163-1.264 3.163-3.16v-30.334h8.855c1.582 0 2.847-1.264 3.163-2.844l5.377-41.709c.316-4.423-.949-8.531-3.796-11.69zm-2.846 10.743l-5.06 39.182h-9.173c-1.897 0-3.162 1.264-3.162 3.159v30.334H81.127v-30.334c0-1.895-1.265-3.159-3.163-3.159h-9.172l-5.06-39.182c-.317-2.527.316-4.74 1.897-6.635 1.581-1.896 3.795-2.844 6.326-2.844h45.543c2.531 0 4.745.948 6.326 2.844a7.814 7.814 0 0 1 2.214 6.635z" fill="#C62032"/></svg>