<svg xmlns="http://www.w3.org/2000/svg" xmlns:xlink="http://www.w3.org/1999/xlink" viewBox="0 0 344.26 249.11"><defs><style>.cls-1{fill:#eccbc0;}.cls-2{fill:#d37a69;}.cls-3{fill:#be202f;}.cls-4{fill:#e6e7e8;}.cls-5{fill:#9ea4ab;}.cls-6{fill:#ccdcde;}.cls-7{fill:#8b939b;}.cls-8{fill:#fff;}.cls-9{fill:#fcb020;}.cls-10{fill:#c85349;}.cls-11{fill:#f68520;}.cls-12{fill:#f8f8f9;}.cls-13{fill:#d9eff2;}.cls-14{fill:#710f13;}.cls-15{fill:#1d2f49;}.cls-16{fill:#2c3d78;}.cls-17{fill:#edf5fc;}.cls-18{fill:#ed9722;}.cls-19{fill:#f2f8f9;}.cls-20{fill:#dee9f7;}.cls-21{fill:#88c9b8;}.cls-22{fill:#b7cde1;}.cls-23{fill:#f47b24;}.cls-24{fill:url(#Dégradé_sans_nom_3);}.cls-25{fill:#d3b095;}.cls-26{fill:url(#Dégradé_sans_nom_3-2);}.cls-27{fill:url(#Dégradé_sans_nom_3-3);}.cls-28{fill:url(#Dégradé_sans_nom_5);}.cls-29{fill:url(#Dégradé_sans_nom_5-2);}.cls-30{fill:#f3c7a1;}.cls-31{fill:#49488a;}.cls-32{fill:url(#Dégradé_sans_nom_3-4);}.cls-33{fill:#716b98;}.cls-34{fill:#434ca0;}.cls-35{fill:#2c2e71;}.cls-36{fill:#686969;}.cls-37{fill:#3e4140;}.cls-38{fill:#bb7939;}.cls-39{fill:#e8bea9;}.cls-40{fill:#ba755e;}.cls-41{fill:#0f4c5b;}.cls-42{fill:#19142f;}.cls-43{fill:#ef4545;}</style><linearGradient id="Dégradé_sans_nom_3" x1="1370.17" y1="220.55" x2="1370.17" y2="162.95" gradientTransform="translate(-1091.55)" gradientUnits="userSpaceOnUse"><stop offset="0" stop-color="#042e49"/><stop offset="1" stop-color="#002737"/></linearGradient><linearGradient id="Dégradé_sans_nom_3-2" x1="-1107.74" y1="233.41" x2="-1107.74" y2="230.07" gradientTransform="matrix(-1, 0, 0, 1, -834.14, 0)" xlink:href="#Dégradé_sans_nom_3"/><linearGradient id="Dégradé_sans_nom_3-3" x1="-1124.61" y1="233.11" x2="-1124.61" y2="229.78" gradientTransform="matrix(-1, 0, 0, 1, -834.14, 0)" xlink:href="#Dégradé_sans_nom_3"/><linearGradient id="Dégradé_sans_nom_5" x1="270.64" y1="144.95" x2="288.05" y2="144.95" gradientUnits="userSpaceOnUse"><stop offset="0" stop-color="#f78c23"/><stop offset="1" stop-color="#e56325"/></linearGradient><linearGradient id="Dégradé_sans_nom_5-2" x1="255.23" y1="140.76" x2="276.22" y2="140.76" xlink:href="#Dégradé_sans_nom_5"/><linearGradient id="Dégradé_sans_nom_3-4" x1="95.09" y1="209.98" x2="127.25" y2="209.98" gradientTransform="matrix(-1, 0, 0, 1, 202.65, 0)" xlink:href="#Dégradé_sans_nom_3"/></defs><title>Asset 10</title><g id="Layer_2" data-name="Layer 2"><g id="Layer_1-2" data-name="Layer 1"><g id="Layer_3" data-name="Layer 3"><path class="cls-1" d="M69.51,217.91C42.24,201,5.32,123.12,78,81.26c20.86-12,55.27-9.41,69.19-24.32s11.5-35,45.89-51.14,58.85,4.11,65,27.27S286.4,50,296,66.86c8.73,15.43-12.29,34.35-15.15,53S289,163.76,265,180.29c-26.73,18.42-46.18-12.07-79.22,16.67C149.23,228.73,103.91,239.18,69.51,217.91Z"/><path class="cls-2" d="M154.18,174.92c36.59,29.61,25.84,70.94,83.49,62.61,39.93-5.78,73.77-45.32,76-84.74,1.67-29.74-8.06-54.08-35.88-52.64s-48.53-11.65-67.7-21.29c-24.12-12.14-68.09,1-80.57,28.9S129.17,154.69,154.18,174.92Z"/><path class="cls-3" d="M174,160.05c0,10.16-13.08,17.75-9.95,34.45s29.09,30.86,45.55,21.56,12-20.4,22-29.66,16-10.19,17.21-20.28c1.12-9.35-8.81-9.7-3.73-24.39,2.11-6.14,6-21.67-6-28.51-14.21-8.12-24.57-1.83-28.69,3.2s-5.8,10.48-14.2,9.66S177.4,128.75,174,139.43C171,148.89,174.07,149.24,174,160.05Z"/><path class="cls-4" d="M47.42,145.64a49.83,49.83,0,0,1,22.52-1.83c12.18,1.94,66.12,25,66.12,25s8.25-4.46,14.46-18.11,4.4-23.39,4.4-23.39S107.13,96.1,98.54,89.52s-14.82-23-14.82-23Z"/><path class="cls-5" d="M65.1,107.09,47.42,145.64a49.83,49.83,0,0,1,22.52-1.83c12.18,1.94,66.12,25,66.12,25s8.18-4.42,14.38-17.94Z"/><path class="cls-6" d="M132.44,161.18l10.78,5.53s6.44-3.19,11.34-14,2.65-16.8,2.65-16.8l-10.78-5.53Z"/><ellipse class="cls-5" cx="42.19" cy="93.81" rx="60.72" ry="37.81" transform="translate(-60.64 96.49) rotate(-67.27)"/><path class="cls-4" d="M137,166.64s-53.93-23-66.11-25A49.85,49.85,0,0,0,48.4,143.5l-1,2.14a49.83,49.83,0,0,1,22.52-1.83c12.18,1.94,66.12,25,66.12,25s8.18-4.42,14.38-17.94l-.05,0C144.35,162.67,137,166.64,137,166.64Z"/><path class="cls-7" d="M8.48,76.54c-13.86,30.5-10,63,8.61,72.52s45-7.46,58.81-38a97.2,97.2,0,0,0,4-10.35l-66.3-34A98.21,98.21,0,0,0,8.48,76.54Z"/><ellipse class="cls-8" cx="39.76" cy="92.72" rx="59.18" ry="35.15" transform="translate(-61.13 93.15) rotate(-67.03)"/><ellipse class="cls-9" cx="40.07" cy="93.04" rx="53.92" ry="30.65" transform="translate(-61.24 93.3) rotate(-66.85)"/><path class="cls-10" d="M154.92,127.27s-14.94-10.07-30.1-20a75.14,75.14,0,0,1-6.57,25.27,70.65,70.65,0,0,1-16,22.56c17.17,6.9,33.82,13.66,33.82,13.66s8.25-4.46,14.46-18.11S154.92,127.27,154.92,127.27Z"/><path class="cls-11" d="M8.05,91.69c-6.61,22.73-3,43.88,9.72,50.42S48.33,138.46,61,118.82Z"/><path class="cls-4" d="M73.87,87.21,54.72,81.37,41.71,110,58.2,123.07a95.24,95.24,0,0,0,9.13-16A102.9,102.9,0,0,0,73.87,87.21Z"/><path class="cls-5" d="M47.2,97.91l-5.37,11.81,16,12.82s1.26-.77,4.07-5.16a64.9,64.9,0,0,0,4.45-8.19Z"/><ellipse class="cls-12" cx="48.21" cy="95.68" rx="15.73" ry="9.07" transform="translate(-58.71 102.5) rotate(-66.91)"/><path class="cls-3" d="M118.25,132.55a70.36,70.36,0,0,1-11.38,17.65L140,165.73a46.21,46.21,0,0,0,10.5-15.07,55.31,55.31,0,0,0,2.87-7.81l-32.72-16.29C120,128.56,119.15,130.56,118.25,132.55Z"/><path class="cls-5" d="M84.54,199.34s6.89,5.51,12.36,9.73,8.72-1.9,8.72-1.9L130,166.55l-21.06-8.62Z"/><polygon class="cls-13" points="112.38 159.23 108.98 157.84 84.58 199.25 87.14 201.27 112.38 159.23"/><path class="cls-14" d="M143.33,162.25c.78-.93,1.59-2,2.41-3.15l-33-16.56c-.85,1.28-1.73,2.53-2.64,3.73Z"/><path class="cls-13" d="M93.49,190.51,96,186.28l8.62,4.42a2.5,2.5,0,0,1,1.07,3.25l0,.09a2.24,2.24,0,0,1-3.06,1.13Z"/><path class="cls-13" d="M114.61,178.3a2.24,2.24,0,0,1-3.06,1.13l-8.86-4.54,2.5-4.23,8.39,4.3a2.5,2.5,0,0,1,1.07,3.25Z"/><path class="cls-13" d="M98,182.85l2.49-4.23,9,4.59a2.51,2.51,0,0,1,1.06,3.25l0,.09a2.23,2.23,0,0,1-3,1.13Z"/><ellipse class="cls-1" cx="185.83" cy="240.15" rx="43.6" ry="3.57"/><rect class="cls-15" x="140.86" y="74.77" width="86.46" height="164.83" rx="19"/><rect class="cls-8" x="140.86" y="94.09" width="86.46" height="123.53"/><rect class="cls-16" x="172.12" y="84.85" width="24.91" height="0.93"/><rect class="cls-17" x="154.21" y="163.34" width="49.1" height="3.78"/><path class="cls-18" d="M217.27,163.22c-1.7,2-3.61,3.71-5.44,5.53a39.94,39.94,0,0,1-4.16-4.17,12.72,12.72,0,0,1,1.6-1.68c1,.7,1.7,1.72,2.64,2.48q1.89-1.78,3.68-3.68C216.34,162,216.72,162.7,217.27,163.22Z"/><rect class="cls-19" x="140.86" y="130.06" width="86.46" height="20.15"/><rect class="cls-20" x="172.12" y="100.97" width="24.91" height="3.65"/><rect class="cls-21" x="175.08" y="110.4" width="18.07" height="13.21"/><rect class="cls-20" x="151.08" y="110.4" width="18.07" height="13.21"/><rect class="cls-20" x="199.09" y="110.4" width="18.07" height="13.21"/><rect class="cls-17" x="153.92" y="174.13" width="49.1" height="3.78"/><path class="cls-18" d="M217,174c-1.7,2-3.61,3.71-5.44,5.53a39.94,39.94,0,0,1-4.16-4.17,12.1,12.1,0,0,1,1.6-1.68c1,.7,1.7,1.72,2.64,2.48q1.89-1.78,3.68-3.68C216.05,172.81,216.43,173.49,217,174Z"/><rect class="cls-17" x="154.35" y="184.93" width="49.1" height="3.78"/><path class="cls-18" d="M217.4,184.82c-1.69,2-3.6,3.7-5.44,5.53a40.84,40.84,0,0,1-4.15-4.17,12.1,12.1,0,0,1,1.6-1.68c1,.7,1.7,1.71,2.64,2.48,1.26-1.19,2.48-2.42,3.68-3.68C216.47,183.62,216.85,184.3,217.4,184.82Z"/><rect class="cls-17" x="154.05" y="195.72" width="49.1" height="3.78"/><path class="cls-18" d="M217.11,195.61c-1.7,1.95-3.6,3.7-5.44,5.53a42,42,0,0,1-4.16-4.17,13.4,13.4,0,0,1,1.6-1.68c1,.7,1.7,1.71,2.64,2.48,1.27-1.19,2.49-2.42,3.69-3.68C216.18,194.4,216.56,195.09,217.11,195.61Z"/><rect class="cls-18" x="181.02" y="113.44" width="6.2" height="3.57"/><rect class="cls-22" x="157.02" y="113.44" width="6.2" height="3.57"/><rect class="cls-22" x="205.03" y="113.44" width="6.2" height="3.57"/><rect class="cls-22" x="151.25" y="135.09" width="66.32" height="1.82"/><rect class="cls-22" x="151.25" y="139.6" width="66.32" height="1.82"/><ellipse class="cls-10" cx="281.57" cy="233.41" rx="23.21" ry="3.23"/><ellipse class="cls-23" cx="274.13" cy="121.7" rx="15.88" ry="5.14" transform="translate(52.61 323.91) rotate(-66.33)"/><polygon class="cls-24" points="289.49 220.22 284.11 220.54 282.41 200.43 280.89 193.3 280.14 186.22 277.83 193.37 272.31 220.55 267.77 220.55 268.92 202.34 270.51 189.08 271.8 164.66 281.55 163.79 287.17 162.95 289.49 220.22"/><polygon class="cls-25" points="267.69 231.3 276.25 232.25 270.68 227.76 270.68 220.82 268.37 220.82 268.23 226.54 267.69 231.3"/><path class="cls-26" d="M270,231s3.48.32,4.89.51a9.49,9.49,0,0,1,4.55,1.87h-4.69L270,231.89V233h-2.24v-2.93Z"/><polygon class="cls-25" points="284.56 231 293.12 231.96 287.55 227.47 287.55 220.53 285.24 220.53 285.1 226.24 284.56 231"/><path class="cls-27" d="M286.87,230.73s3.48.32,4.89.51a9.6,9.6,0,0,1,4.55,1.87h-4.68l-4.76-1.51v1.11h-2.24v-2.93Z"/><path class="cls-28" d="M270.64,138,275,124.72l6.25,2.91a41.16,41.16,0,0,1,3.85,9.55c.94,3.89.53,7.87.41,11.13-.27,7.44,2.56,15.78,2.56,15.78s-4.28-.26-8.27-.08a50.45,50.45,0,0,0-8.19,1.17s3.45-8.11,3.46-13.57S270.64,138,270.64,138Z"/><path class="cls-29" d="M255.63,144.59l18.95-19.28a7.33,7.33,0,0,1,1.58,5.86c-.46,3.81-5.52,6.86-5.52,6.86l-7.89,9.09,4,3.82-2.36,5.26s-6.87-5.47-8.37-6.77S255.63,144.59,255.63,144.59Z"/><path class="cls-30" d="M277.61,117.57l4.95-9.72,1.4,2.38a6.85,6.85,0,0,1,.8,1.55c.16.53,2,2.19,1.38,2.38a.65.65,0,0,0-.45.52,6.58,6.58,0,0,0,.12,1.39,3.89,3.89,0,0,1-1,2.86s-3.35-.18-4.71,2.45a7.11,7.11,0,0,0,0,5.62s-8.25,1.56-5.48-1.63C277.06,122.61,277.61,117.57,277.61,117.57Z"/><ellipse class="cls-23" cx="278.86" cy="112.09" rx="5.49" ry="3.43" transform="translate(64.33 322.58) rotate(-66.35)"/><polygon class="cls-30" points="271.55 157.21 265.19 154.91 266.14 152.34 272.27 154.79 271.55 157.21"/><ellipse class="cls-30" cx="274.99" cy="156.17" rx="4.35" ry="1.8"/><path class="cls-23" d="M280.55,106.88a8.8,8.8,0,0,1,1,.36,16.36,16.36,0,0,0-6.18,8.9,14.75,14.75,0,0,0-.38,1.56c-2.84-1.63-4.4-4.5-3.63-7.14C272.32,107.33,276.43,105.68,280.55,106.88Z"/><ellipse class="cls-2" cx="90.06" cy="246.51" rx="31.88" ry="2.6"/><path class="cls-31" d="M93.83,182.73a.22.22,0,0,1-.22-.16L92,176.79a.23.23,0,0,1,.17-.28.24.24,0,0,1,.29.16l1.58,5.78a.23.23,0,0,1-.17.28Z"/><path class="cls-32" d="M107.41,174.72,82.48,174c-.26,4.59-.87,17.27-1.33,24.3-1,19.67-2.91,44.7-2.91,44.7L75.4,246h7l8.65-47.64,2.75-13.93,1.74,0,1.16,13.89,4.7,47.64h5.9l-1.46-2.68s1.08-22.17,1.58-45C107.59,192.15,107.61,180.47,107.41,174.72Z"/><path class="cls-33" d="M115.52,158.29a5.24,5.24,0,0,0-.25-1.4,19.47,19.47,0,0,0-1.57-4.73l-4.47-10.36a23.36,23.36,0,0,0-2.55-4.19c-1.87-2.52-4.64-3.34-8.14-3.33-1.63,0,2.71,6.57,3.75,8.17,1.54,2.37,2,5.25,4.42,9.73.8,1.5,1.44,3.82,2.37,5.59,0,.32,0,.65,0,1q0,3.48.07,6.94a22.58,22.58,0,0,1-.43,6.09,2.18,2.18,0,0,0,.87,2.28,3.39,3.39,0,0,0,2.11.82,42.92,42.92,0,0,0,3.35-9.66c.14-.71.26-1.43.34-2.15A29.23,29.23,0,0,0,115.52,158.29Z"/><path class="cls-34" d="M108,176.92,82.08,178c.07-4.56.39-10.9.61-14.41,0-.23,0-.44,0-.65.16-2.26.25-4.48.22-6.84,0-.24,0-.47,0-.71,0-.92-.07-1.88-.14-2.87-.12-1.61-.3-3.31-.57-5.17-.38-2.58-2-6.23-1.57-8.22a7.24,7.24,0,0,1,5.3-5.06,9.56,9.56,0,0,1,3-.4l10.78.36c7.43.24,8.23,7.39,8,12.31-.15,3.9-.41,7.8-.58,11.7a78.37,78.37,0,0,0,.32,13.27C107.7,172.84,108,175.35,108,176.92Z"/><path class="cls-35" d="M98.27,157c-3.27,1.46-11.14,4.31-12.75,5.2a27.46,27.46,0,0,1-2.83,1.36c0-.22,0-.44,0-.65.16-2.26.25-4.47.22-6.84a58.84,58.84,0,0,0,8.74-2.57c.88-.36,4-2.09,4.63-1.12a10.24,10.24,0,0,0,2.29,2.26A1.36,1.36,0,0,1,98.27,157Z"/><path class="cls-36" d="M102.24,144.06a.75.75,0,0,1,0,.21l-2.09,7.93a1,1,0,0,1-.91.65l-4.53-.11a.78.78,0,0,1-.38-.12h0a.49.49,0,0,1-.18-.55l2.09-7.94a.94.94,0,0,1,.91-.63l4.53.1A.56.56,0,0,1,102.24,144.06Z"/><path class="cls-37" d="M102.24,144.06a.75.75,0,0,1,0,.21l-2.09,7.93a1,1,0,0,1-.91.65l-4.53-.11a.78.78,0,0,1-.38-.12h0a.38.38,0,0,1,0-.21l2.09-7.94a.94.94,0,0,1,.92-.64l4.52.11A.67.67,0,0,1,102.24,144.06Z"/><path class="cls-30" d="M95.3,151.22c-1.55.67-1.79,2.85-2.39,3.63-.74.94.76,1.25,2.39,1.05a7.18,7.18,0,0,0,3.81-1.48,3.85,3.85,0,0,0,1.07-3C100.13,149.94,97.32,150.34,95.3,151.22Z"/><path class="cls-34" d="M94.25,152.47c-.59-.68-1.21-.18-2.09.08-3.14.94-8.6.71-12.66,1.19.28-.65.53-1.27.78-1.82,2.4-5.46,3.82-7.77,4.74-9.72s4.79-8.46,3.18-8.52c-4.1-.13-6.52.79-8.19,3.62a80,80,0,0,0-6.39,14.09c-.75,2-1.71,3.31-1.85,5.26,0,.06,0,1.32,0,1.38,0,.93.12.51.6,1.05l.14.29c1.07,1.88,8.19,1.52,13-.38,2.26-.9,9.18-4.07,9.18-4.07A2.43,2.43,0,0,0,94.25,152.47Z"/><path class="cls-38" d="M98,134a2.43,2.43,0,0,1-.25.65,3.56,3.56,0,0,1-3.43,1.68,7.36,7.36,0,0,1-5-2.48,1.66,1.66,0,0,1-.13-.14Z"/><path class="cls-39" d="M90.06,128.49V134s4.14,4.68,7.94.11l-.33-5.57Z"/><path class="cls-40" d="M94.11,132.22l-.31,0a4.67,4.67,0,0,1-3.4-1.08.19.19,0,0,1,0-.28.23.23,0,0,1,.31,0,4.23,4.23,0,0,0,6.14-.76.23.23,0,0,1,.3,0,.18.18,0,0,1,0,.27A4.69,4.69,0,0,1,94.11,132.22Z"/><path class="cls-30" d="M88.51,122.27c-.5,4.46.06,9.28,3.46,9.59a6.89,6.89,0,0,0,7.76-6.2c.49-4.46-1.83-8.67-5.19-9.41S89,117.81,88.51,122.27Z"/><path class="cls-41" d="M88.8,118.19a1.59,1.59,0,0,1,.24-1.46c.07-.11.15-.22.24-.34A9.51,9.51,0,0,1,90.77,115h0c2.57-.81,5.55-1,7.87.15a3.69,3.69,0,0,1,2.06,2.32c.61,1.27.43,3.33.1,4.88-.09.42-.19.81-.29,1.13-.45,1.48-1,3.5-2.23,4.63a1.47,1.47,0,0,1-1,.36h0l.12-.21a5.53,5.53,0,0,0,.09-1.4.87.87,0,0,0,.5.26,1.05,1.05,0,0,0,.59-.2,1.88,1.88,0,0,0,.88-1.72,3.84,3.84,0,0,0-.1-.79h0a1.34,1.34,0,0,0-.26-.55.44.44,0,0,0-.35-.18,1.3,1.3,0,0,0-.7.47l0,.06a6.21,6.21,0,0,1-.14.62c0,.24-.12.48-.19.71a3,3,0,0,1-.89.37v-.16a10.75,10.75,0,0,0,.39-4c0-.33,0-.66,0-1s0-.62,0-.92v0a12.26,12.26,0,0,1-4-.7,5,5,0,0,1,1.23.82l.35.32c.28.27.55.54.83.79a11.17,11.17,0,0,1-5.59-1.77c-.23-.15-.45-.29-.65-.44h0c0,.35,0,.7-.07,1.06a26.59,26.59,0,0,0,0,3.89h-.07c-.07-.34-.16-.67-.25-1a7.19,7.19,0,0,1-.28-1.38C88.53,120.45,88.31,119.06,88.8,118.19Z"/><path class="cls-30" d="M107.37,173.33h0l1.23-1.13a1.12,1.12,0,0,1,.17.21,3.49,3.49,0,0,0,3.08,2.26,8.51,8.51,0,0,1-2.58,2.36,5.35,5.35,0,0,1-3.36.82,1.37,1.37,0,0,1-1.24-1A35.13,35.13,0,0,1,107.37,173.33Z"/><polygon class="cls-42" points="104.69 243.1 101.15 243.3 101.46 245.95 108.96 245.95 104.69 243.1"/><polygon class="cls-42" points="69.72 246.04 79.51 246.04 80.25 245.11 80.87 246.04 82.58 246.04 82.58 241.76 77.72 240.87 75.29 243.83 69.72 245.49 69.72 246.04"/><path class="cls-43" d="M132.09,54.63a6,6,0,1,1,8.46,0A6,6,0,0,1,132.09,54.63Z"/><circle class="cls-43" cx="124.86" cy="46.18" r="2.63"/><circle class="cls-43" cx="123" cy="64.82" r="11.87" transform="translate(-15.71 74.24) rotate(-31.67)"/><path class="cls-23" d="M338.13,160.2h-3.8v-2.28h3.8v-4h2.33v4h3.8v2.28h-3.8v4h-2.33Z"/><path class="cls-23" d="M216.25,15.91v6.72h1.45V15.91a.74.74,0,1,0-1.45,0Z"/><path class="cls-23" d="M216.25,45.32a.74.74,0,1,0,1.45,0V39h-1.45Z"/><path class="cls-23" d="M201.39,30.61a.82.82,0,0,0,.88.73H209V29.88h-6.73A.82.82,0,0,0,201.39,30.61Z"/><path class="cls-23" d="M231.68,29.88h-6.32v1.46h6.32a.74.74,0,1,0,0-1.46Z"/><path class="cls-23" d="M206.06,20.73l4.76,4.76,1-1-4.76-4.76a.74.74,0,1,0-1,1Z"/><path class="cls-23" d="M226.86,41.52a.74.74,0,1,0,1-1L223.42,36l-1,1Z"/><path class="cls-23" d="M206,41.63a.8.8,0,0,0,1.13-.11l4.76-4.75-1-1-4.76,4.76A.8.8,0,0,0,206,41.63Z"/><path class="cls-23" d="M226.86,19.7l-4.47,4.47,1,1,4.47-4.47a.74.74,0,1,0-1-1Z"/><path class="cls-23" d="M40.45,203.2a2.27,2.27,0,1,1-2.26-2.26A2.27,2.27,0,0,1,40.45,203.2Z"/><path class="cls-23" d="M46.61,192.87a5.9,5.9,0,1,1-5.9-5.89A5.9,5.9,0,0,1,46.61,192.87Z"/></g></g></g></svg>