<svg xmlns="http://www.w3.org/2000/svg" xmlns:xlink="http://www.w3.org/1999/xlink" width="371.248" height="287.753" viewBox="0 0 371.248 287.753"><defs><style>.a,.b,.d,.e,.h{fill:#ff6104;}.a{opacity:0.24;}.c{fill:#fff;}.d{opacity:0.14;}.e{opacity:0.11;}.f{fill:url(#a);}.g{fill:url(#b);}.h{opacity:0.58;}.i{fill:url(#c);}.j{fill:url(#d);}.k{fill:url(#e);}.l{fill:url(#f);}.m{fill:url(#g);}.n{fill:url(#h);}.o{fill:url(#i);}.p{fill:url(#j);}.q{fill:url(#k);}.r{fill:url(#l);}.s{fill:url(#m);}.t{fill:url(#n);}.u{fill:#5d2302;}</style><linearGradient id="a" x1="0.494" y1="-0.861" x2="0.501" y2="1.301" gradientUnits="objectBoundingBox"><stop offset="0" stop-color="#fff" stop-opacity="0"/><stop offset="0.95" stop-color="#fff"/></linearGradient><linearGradient id="b" x1="0.499" y1="-0.264" x2="0.507" y2="3.846" gradientUnits="objectBoundingBox"><stop offset="0" stop-color="#010101" stop-opacity="0"/><stop offset="0.95" stop-color="#010101"/></linearGradient><linearGradient id="c" x1="1.75" y1="0.5" x2="2.75" y2="0.5" gradientUnits="objectBoundingBox"><stop offset="0" stop-color="#e5c6d6"/><stop offset="0.42" stop-color="#ead4d0"/><stop offset="1" stop-color="#f0e9cb"/></linearGradient><linearGradient id="d" x1="8.128" y1="0.745" x2="11.368" y2="-1.037" xlink:href="#b"/><linearGradient id="e" x1="4.303" y1="0.594" x2="4.468" y2="-0.526" xlink:href="#b"/><linearGradient id="f" x1="4.717" y1="0.593" x2="4.893" y2="-0.504" xlink:href="#b"/><linearGradient id="g" x1="0.5" x2="0.5" y2="1" gradientUnits="objectBoundingBox"><stop offset="0" stop-color="#ff6104"/><stop offset="1" stop-color="#9f3d03"/></linearGradient><linearGradient id="h" x1="0.21" y1="0.456" x2="0.81" y2="0.569" gradientUnits="objectBoundingBox"><stop offset="0" stop-color="#a43e03"/><stop offset="1" stop-color="#5f2402"/></linearGradient><linearGradient id="i" x1="6.613" y1="0.5" x2="7.614" y2="0.5" xlink:href="#c"/><linearGradient id="j" x1="3.133" y1="0.293" x2="4.113" y2="1.767" xlink:href="#b"/><linearGradient id="k" x1="8.746" y1="0.494" x2="11.332" y2="0.533" xlink:href="#b"/><linearGradient id="l" x1="0" y1="0.5" x2="1" y2="0.5" xlink:href="#a"/><linearGradient id="m" x1="0" y1="0.5" x2="1" y2="0.5" xlink:href="#a"/><linearGradient id="n" x1="0" y1="0.5" x2="1" y2="0.5" xlink:href="#a"/></defs><g transform="translate(-0.001 -0.002)"><path class="a" d="M45.519,145.033c-3.09,15.216-3.014,31.1-7.951,45.823-8.894,26.514-33.2,46.635-38.1,74.184a57.432,57.432,0,0,0,20.96,54.324C34.3,330.083,52.25,333.712,69.6,336.2c65.055,9.319,131.2,6.91,196.74,2.327,23.887-1.673,48.6-3.875,69.508-15.527,13.287-7.406,24.682-18.775,30.345-32.89s5.03-31.032-3.27-43.773c-9.129-14-26.764-22.84-30.269-39.185-2.987-13.93,5.613-27.32,11.832-40.138,10.355-21.353,14.388-47.637,2.916-68.407-7.085-12.813-19.293-22.121-32.4-28.639-36.694-18.235-79.83-16.475-120.633-12.66C135.268,62.838,59.433,76.642,45.519,145.033Z" transform="translate(1.35 -54.82)"/><rect class="b" width="199.389" height="128.851" rx="19.43" transform="translate(96.605 79.057)"/><rect class="c" width="188.14" height="121.587" rx="18.34" transform="translate(101.384 84.038)"/><rect class="d" width="71.263" height="30.874" rx="15.25" transform="translate(45.839 155.126)"/><rect class="d" width="71.263" height="30.874" rx="15.25" transform="translate(268.341 156.701)"/><rect class="d" width="71.263" height="30.874" rx="15.25" transform="translate(269.785 86.212)"/><rect class="e" width="71.938" height="77.71" rx="14.47" transform="translate(120.66 119.315)"/><path class="d" d="M213.749,292.214s-1.548,6.18,3.4,9.265,23.811-5.259,35.25-6.5,34.955,3.412,34.955,3.412-4.36,8.044-4.033,17.009.926,16.077,0,17.625,5.254,7.728,6.18,8.039,9.265.926,9.265.926l10.513,15.461,26.742-.572-16.437-54.3,7.94-26.759-73.573-9.586Z" transform="translate(-96.418 -151.018)"/><path class="b" d="M158.03,379.354l-37.07,27.909H380.467L344.225,378.94Z" transform="translate(-55.038 -172.422)"/><path class="f" d="M158.03,379.354l-37.07,27.909H380.467L344.225,378.94Z" transform="translate(-55.038 -172.422)"/><path class="b" d="M131.582,441.118,120.96,430.91H380.467l-9.581,10.834Z" transform="translate(-55.038 -196.069)"/><path class="g" d="M131.582,441.118,120.96,430.91H380.467l-9.581,10.834Z" transform="translate(-55.038 -196.069)"/><path class="h" d="M305.54,415.41l11.041-8.747,40.4-.213,11.663,8.753Z" transform="translate(-139.024 -184.939)"/><path class="h" d="M164.52,396.025l209.94-.278-11.243-9.167H177.436Z" transform="translate(-74.858 -175.898)"/><path class="i" d="M376.846,364.988c-1.21-1.635-3.341-2.278-5.254-3.008-7.488-2.878-13.39-8.758-18.633-14.818a13.208,13.208,0,0,1-2.97-4.649,6.987,6.987,0,0,1,1.3-6.365,8.375,8.375,0,0,0,.807-1.019,5.526,5.526,0,0,0,.545-1.755c.365-1.82,1.215-3.9,3.036-4.273a5.941,5.941,0,0,0,1.21-.234,2.916,2.916,0,0,0,1.253-1.679c1.052-2.431,2.8-4.976,5.423-5.3a2.476,2.476,0,0,0,.981-.213c.73-.42.632-1.471.8-2.3.4-2.066,2.943-3.117,5-2.676s3.717,1.924,5.27,3.341l5.962,5.45c1.6,1.461,3.27,2.981,5.412,3.493a1.417,1.417,0,0,0,1.09-.065,1.635,1.635,0,0,0,.545-1.2c.747-4.589,8.889-9.657,12.447-9.041-2.18,6.186-3.88,15.952-5.156,24.906,6.055,10.006,15.063,17.554,24.214,24.84a64.393,64.393,0,0,0,7.134,5.188c2.97,1.766,6.24,3.074,8.878,5.3l-38.149.888a8.605,8.605,0,0,1-3.15-.311,8.512,8.512,0,0,1-2.66-1.782q-5.45-4.741-10.578-9.81A11.91,11.91,0,0,0,376.846,364.988Z" transform="translate(-158.387 -173.931)"/><path class="j" d="M397.088,348.064c-.392,3.308-2.18,6.284-4.131,8.971a22.891,22.891,0,0,1-5.019,5.341,10.426,10.426,0,0,1-6.91,2.087,8.175,8.175,0,0,1-5.319-2.725,3.9,3.9,0,0,1-.976-1.793c-.289-1.553.867-2.965,1.962-4.1a136.254,136.254,0,0,1,13.031-11.919c1.428-1.144,5.379-4.534,7.461-3.733C398.194,340.576,397.279,346.434,397.088,348.064Z" transform="translate(-169.752 -184.611)"/><path class="b" d="M394.6,310.868l-34.334,44.22s-8.965-.621-14.535-5.259,4.333-7.423,4.333-7.423,20.4-20.4,23.189-36.487Z" transform="translate(-155.803 -169.073)"/><path class="k" d="M345.737,349.861a22.942,22.942,0,0,0,8.611,4.175,32.409,32.409,0,0,0,5.929,1.09l33.789-43.441.572-.747L373.281,306c-2.769,16.077-23.195,36.514-23.195,36.514S340.211,345.239,345.737,349.861Z" transform="translate(-155.814 -169.109)"/><path class="l" d="M355.952,353.831a15.113,15.113,0,0,0,3.036,1.978,32.414,32.414,0,0,0,5.929,1.09l33.789-43.441-15.2-3.559c-2.812,16.077-23.195,36.514-23.195,36.514S350.377,349.194,355.952,353.831Z" transform="translate(-160.454 -170.884)"/><path class="b" d="M364.965,207.4a16.807,16.807,0,0,0-10.862-8.409c-21.429-5.161-88.533-23.838-92.424-56.03,0,0-1.237-8.349-11.75-8.349S222.717,234.174,225.5,236.337s12.366-2.474,17.314-7.085a38.475,38.475,0,0,1,37.724-8.349c8.485,2.643,23.941,6.229,38.373,9.368,10.355,2.256,20.2,4.284,26.552,5.57a14.894,14.894,0,0,0,14.4-5.1c3.951-4.72,7.788-11.875,6.322-21.009C366.191,209.747,365.695,208.761,364.965,207.4Z" transform="translate(-101.73 -91.125)"/><ellipse class="b" cx="52.15" cy="17.57" rx="52.15" ry="17.57" transform="translate(104.446 140.482) rotate(-75.64)"/><ellipse class="m" cx="52.15" cy="17.57" rx="52.15" ry="17.57" transform="translate(104.446 140.482) rotate(-75.64)"/><path class="n" d="M250.461,201.15l13.4,1.771s-5.1,32.465-10.823,35.25l-9.123-6.807Z" transform="translate(-110.246 -121.401)"/><path class="o" d="M380.492,328.779a70.549,70.549,0,0,0,6.18,4.136c1.346.9,2.725,2.12,2.828,3.744a4.61,4.61,0,0,1-.621,2.3,12.1,12.1,0,0,1-2.959,3.739,22.293,22.293,0,0,0-2.927,2.512,17.914,17.914,0,0,0-1.428,2.256,30.8,30.8,0,0,1-5.706,6.355,12.75,12.75,0,0,1-1.913,1.553,7.761,7.761,0,0,1-6.714.5,12.033,12.033,0,0,1-5.384-4.278,9.063,9.063,0,0,1-2.044-6.7,11.291,11.291,0,0,1,1.771-3.957,80.229,80.229,0,0,1,9.374-12.219c.9-.959,3.995-5.112,5.423-4.9C377.451,323.945,379.375,327.841,380.492,328.779Z" transform="translate(-162.938 -177.211)"/><path class="p" d="M412.859,262.578s-3.646,16.464-15.739,16.895l29.974,6.818s10.714-.621,12.78-4.948,12.769-19.363-2.256-31.135L413.5,242.79S416.178,252.682,412.859,262.578Z" transform="translate(-179.959 -140.348)"/><path class="q" d="M279.706,170.92s3.521,38.738-18.966,72.974c0,0,13.4-10.306,29.685-8.039,0,0,8.867-32.568,4.948-41.642S279.706,170.92,279.706,170.92Z" transform="translate(-117.904 -107.646)"/><rect class="c" width="114.208" height="49.479" rx="24.45" transform="translate(230.405 21.92)"/><rect class="c" width="71.263" height="30.874" rx="15.25" transform="translate(272.543 82.272)"/><rect class="c" width="71.263" height="30.874" rx="15.25" transform="translate(146.526 8.628)"/><rect class="c" width="71.263" height="30.874" rx="15.25" transform="translate(42.558 151.976)"/><rect class="c" width="71.263" height="30.874" rx="15.25" transform="translate(272.02 152.505)"/><rect class="e" width="85.459" height="3.542" rx="1.771" transform="translate(245.37 30.444)"/><rect class="e" width="85.459" height="3.542" rx="1.771" transform="translate(245.37 42.657)"/><rect class="e" width="52.771" height="3.542" rx="1.771" transform="translate(282.783 89.123)"/><rect class="e" width="52.771" height="3.542" rx="1.771" transform="translate(282.783 101.33)"/><rect class="e" width="52.771" height="3.542" rx="1.771" transform="translate(282.783 159.224)"/><rect class="e" width="52.771" height="3.542" rx="1.771" transform="translate(282.783 171.432)"/><rect class="e" width="52.771" height="3.542" rx="1.771" transform="translate(53.583 158.434)"/><rect class="e" width="52.771" height="3.542" rx="1.771" transform="translate(53.583 170.642)"/><rect class="e" width="52.771" height="3.542" rx="1.771" transform="translate(155.976 15.615)"/><rect class="e" width="52.771" height="3.542" rx="1.771" transform="translate(155.976 27.822)"/><rect class="e" width="85.459" height="3.542" rx="1.771" transform="translate(245.37 54.865)"/><path class="r" d="M183.44,101.025c.785,1.575,13.385,23.091,13.385,23.091l6.038-4.2-6.583-24.4Z" transform="translate(-82.731 -73.334)"/><path class="s" d="M131.048,99.46l20.219,15.227-4.2,6.567-24.415-7.613Z" transform="translate(-55.807 -45.255)"/><path class="t" d="M112.05,200.012l26.252-4.2.267,7.613-25.729,8.665Z" transform="translate(-50.984 -89.095)"/><ellipse class="u" cx="15.69" cy="5.286" rx="15.69" ry="5.286" transform="translate(127.32 108.848) rotate(-75.64)"/></g></svg>