<svg xmlns="http://www.w3.org/2000/svg" xmlns:xlink="http://www.w3.org/1999/xlink" width="452.383" height="377.203" viewBox="0 0 452.383 377.203"><defs><style>.a{fill:#ffe2d1;}.b{fill:#fca89e;}.c,.f{fill:#ff6104;}.d{fill:#473f47;}.e{fill:#fff;}.f{opacity:0.18;}.g,.h{fill:#020202;}.g{opacity:0.14;}.h{opacity:0.4;}.i{fill:url(#a);}</style><linearGradient id="a" x1="0.718" y1="-4.714" x2="0.151" y2="-10.113" gradientUnits="objectBoundingBox"><stop offset="0.01"/><stop offset="0.08" stop-opacity="0.69"/><stop offset="0.21" stop-opacity="0.322"/><stop offset="1" stop-opacity="0"/></linearGradient></defs><g transform="translate(0.003 0.001)"><path class="a" d="M236.37,31.595a127.878,127.878,0,0,0-24.327,2.736c-30.023,6.679-54.835,27.225-77.321,48.194-18.8,17.536-37.311,36.5-47.1,60.295-9.353,22.822-9.95,48.666-20.782,70.891-6.853,14.091-17.412,25.956-25.807,39.2C26.867,275.3,19.6,304.949,32.178,328.331c7.164,13.3,19.713,22.76,32.237,31.192,32.075,21.591,67.471,39.637,105.715,45.271,14.6,2.152,29.4,2.487,44.152,3.2,12.723.634,25.6,1.579,38.107-.8,31.3-5.945,55.009-31.267,84.025-44.425,20.633-9.365,43.53-12.35,65.444-17.972s44.326-14.75,58.106-32.759c12.3-16.081,15.745-36.515,17.884-56.128,2.065-18.892-9.5-36.577-16.579-53.952-15.3-37.547-31.279-75.543-59.2-105.715A200.921,200.921,0,0,0,295,36.222a263.877,263.877,0,0,0-46.589-4.639C244.4,31.508,240.387,31.483,236.37,31.595Z" transform="translate(-25.71 -31.52)"/><path class="b" d="M178.638,159.214a3.084,3.084,0,0,0-2.487-2.562,4.291,4.291,0,0,0-3.532.995,3.731,3.731,0,0,0-1.244,1.953,5.411,5.411,0,0,0,.137,2.4,8.843,8.843,0,0,0,1.244,3.122c1.244,1.766,4.179,2.388,5.074,0a12.135,12.135,0,0,0,.087-2.326C178.053,161.577,178.762,160.47,178.638,159.214Z" transform="translate(9.772 -1.039)"/><path class="c" d="M163.85,77.685l34.065,174.6a15.546,15.546,0,0,1-12.275,18.233l-75.58,14.738A15.546,15.546,0,0,1,91.8,273.033h0L57.737,98.392A15.546,15.546,0,0,1,70,80.16h0l75.568-14.75A15.546,15.546,0,0,1,163.85,77.622h0Z" transform="translate(-17.975 -23.334)"/><rect class="d" width="103.812" height="203.371" rx="12.08" transform="translate(39.41 61.961) rotate(-11.04)"/><path class="e" d="M158.517,81.4l32.137,164.729a14.352,14.352,0,0,1-11.5,16.715L111.318,276.08a14.49,14.49,0,0,1-7.462-.473,14.141,14.141,0,0,1-9.514-10.683L62.217,100.183A14.365,14.365,0,0,1,73.746,83.467L85.2,81.2l.435,2.089a6.865,6.865,0,0,0,5.472,5.3,7.039,7.039,0,0,0,2.7,0L125.3,82.448a6.977,6.977,0,0,0,5.522-8.072l-.41-1.978L141.6,70.234a14.589,14.589,0,0,1,10.584,1.953,14.042,14.042,0,0,1,6.33,9.216Z" transform="translate(-16.87 -22.152)"/><circle class="f" cx="23.394" cy="23.394" r="23.394" transform="translate(86.426 121.063)"/><path class="c" d="M117.7,168.281l-.808-4.179a12.1,12.1,0,0,1-6.679-.547l.423-2.96a11.193,11.193,0,0,0,6.219.547c2.96-.572,4.589-2.674,4.117-4.975s-2.338-3.358-5.646-3.992c-4.552-.808-7.537-2.189-8.233-5.771s1.244-6.517,4.9-7.91l-.808-4.166,2.562-.5.784,4a11.355,11.355,0,0,1,5.659.373l-.46,2.972a10.3,10.3,0,0,0-5.485-.373c-3.171.622-3.992,2.786-3.657,4.428.423,2.152,2.176,2.923,6.044,3.731,4.614.871,7.176,2.587,7.922,6.219.634,3.258-1.02,6.766-5.124,8.32l.833,4.278Z" transform="translate(-5.911 -6.586)"/><path class="c" d="M386.229,98.071,357.947,277.849a15.907,15.907,0,0,1-18.183,13.233l-77.806-12.251a15.9,15.9,0,0,1-13.27-18.146h0l28.294-179.8A15.9,15.9,0,0,1,295.14,67.638h0l77.806,12.238a15.9,15.9,0,0,1,13.283,18.108Z" transform="translate(28.585 -22.765)"/><rect class="d" width="208.047" height="106.2" rx="12.36" transform="matrix(0.155, -0.988, 0.988, 0.155, 277.455, 250.936)"/><path class="e" d="M379.291,100.116,352.6,269.683a14.688,14.688,0,0,1-16.9,12.052L265.865,270.74a14.924,14.924,0,0,1-6.99-3.047,14.452,14.452,0,0,1-5.423-13.606L280.143,84.52a14.688,14.688,0,0,1,16.927-12.039L308.9,74.334l-.336,2.127a7.064,7.064,0,0,0,3.42,7.014,7.761,7.761,0,0,0,2.6.933l32.448,5.1a7.139,7.139,0,0,0,8.134-5.833l.311-2.015,11.455,1.8a14.924,14.924,0,0,1,9.489,5.572A14.365,14.365,0,0,1,379.291,100.116Z" transform="translate(29.752 -21.588)"/><path class="c" d="M250.769,144.031h-6.219a1.866,1.866,0,0,1,0-3.731h6.219a1.866,1.866,0,0,1,0,3.731Zm-12.437,0h-6.219a1.866,1.866,0,1,1,0-3.731h6.219a1.866,1.866,0,1,1,0,3.731Zm-12.437,0h-6.219a1.866,1.866,0,1,1,0-3.731H225.9a1.866,1.866,0,0,1,0,3.731Zm-12.437,0H207.24a1.866,1.866,0,1,1,0-3.731h6.219a1.866,1.866,0,0,1,0,3.731Zm-12.437,0H194.8a1.866,1.866,0,1,1,0-3.731h6.219a1.866,1.866,0,1,1,0,3.731Zm-12.437,0h-6.219a1.866,1.866,0,1,1,0-3.731h6.219a1.866,1.866,0,0,1,0,3.731Z" transform="translate(12.014 -5.009)"/><path class="c" d="M179.633,152.863a1.753,1.753,0,0,1-1.244-.46l-8.407-7.35a1.866,1.866,0,0,1-.137-2.649,1.417,1.417,0,0,1,.137-.137l8.407-7.7a1.866,1.866,0,0,1,2.487,2.749l-6.865,6.293,6.828,5.982a1.866,1.866,0,0,1,.2,2.612h0A1.828,1.828,0,0,1,179.633,152.863Z" transform="translate(9.299 -6.491)"/><path class="c" d="M242.105,152.863a1.841,1.841,0,0,1-1.405-.634,1.878,1.878,0,0,1,.174-2.637l6.84-5.982-6.865-6.293a1.866,1.866,0,0,1,2.487-2.749l8.407,7.7a1.9,1.9,0,0,1,.609,1.393,1.928,1.928,0,0,1-.634,1.393l-8.407,7.35A1.866,1.866,0,0,1,242.105,152.863Z" transform="translate(26.573 -6.491)"/><path class="c" d="M248.309,257.337a36.689,36.689,0,1,1-73.379,0,26.409,26.409,0,0,1,.1-2.811,36.677,36.677,0,0,1,73.242,2.811Z" transform="translate(10.656 14.587)"/><path class="g" d="M196.205,272.669c-1.244,5.3.274,10.957-.821,16.23a36.814,36.814,0,0,1-18.245-20.359,23.019,23.019,0,0,1,.137-5.472,14.513,14.513,0,0,0,0-5.858,13.47,13.47,0,0,0-2.276-4,36.627,36.627,0,0,1,15.322-27.075,1.892,1.892,0,0,1,0,.746l-1.567,6.977a20.845,20.845,0,0,1,0,6.219,7.164,7.164,0,0,1-3.408,4.975,19.2,19.2,0,0,0-1.965.97,6.22,6.22,0,0,0-1.492,1.791,15.162,15.162,0,0,0-2.239,4.676,5.211,5.211,0,0,0,1.169,4.838l10.223-1.99a3.259,3.259,0,0,1,3.1.46c.883.958.336,2.487.522,3.793.249,1.642,1.716,2.836,2.4,4.365C198.319,266.725,196.877,269.784,196.205,272.669Z" transform="translate(10.673 15.908)"/><path class="h" d="M181.154,236.607a6.02,6.02,0,0,0,2.176,2.487,26.031,26.031,0,0,0,14.837,5.2,9.415,9.415,0,0,0-4.739,2.264c-1.244,1.244-1.5,3.731-.075,4.726a4.141,4.141,0,0,0,1.679.647,15.236,15.236,0,0,0,8.171-.659,13.916,13.916,0,0,1,4.813-1.443,10.31,10.31,0,0,1,3.88,1.107,9.689,9.689,0,0,0,5.6,1.032c1.89-.386,3.607-2.2,3.209-4.079-.1-.448-.3-.933-.075-1.318a1.5,1.5,0,0,1,.7-.51l17.412-7.711c1.107-.5,2.363-1.244,2.487-2.4s-1.094-2.214-2.226-2.8c-5.982-3.122-12.959-3.52-19.7-3.856l-11.964-.585a104.357,104.357,0,0,0-17.412.124c-2,.236-5.547.261-7.077,1.754a7.039,7.039,0,0,0-1.691,6.02Z" transform="translate(12.144 16.462)"/><path class="g" d="M240.31,256.818a36.615,36.615,0,0,1-13.967,28.8,4.552,4.552,0,0,1-1.244-1.244,3.731,3.731,0,0,1,1-5.186h0c-.622.323-3.047-.473-3.731-.585l-3.731-.585c-1.816-.286-4.975-.162-6.032-1.99a4.2,4.2,0,0,0-.423-.721,2.487,2.487,0,0,0-.784-.535c-1.132-.547-2.487-1.182-2.736-2.413-.187-.908.261-1.94-.2-2.736-.149-.261-.373-.448-.522-.7a2.351,2.351,0,0,1,.261-2.3c1.592-2.786,4.888-4.129,8.047-4.664s6.442-.46,9.514-1.356a42.712,42.712,0,0,1,5.8-1.779c1.107-.149,2.487-.261,2.885-1.244.236-.585,0-1.244.236-1.866.1-.249.261-.473.361-.721a1.517,1.517,0,0,0-.97-1.915l-.274-.062c.261-.684.473-1.567-.075-2.052a1.443,1.443,0,0,0-1.343-.211,11.516,11.516,0,0,0-3.37,2.226,9.241,9.241,0,0,1-11.728-1.381,3.246,3.246,0,0,1-1.02-1.654,2.661,2.661,0,0,1,1.555-2.637,7.461,7.461,0,0,1,3.172-.622q-.61-3.992-1.244-7.985c-6.107,1.629-8.582-4.179-9.452-9s2.562-6.542,6.977-6.865a36.664,36.664,0,0,1,23.046,33.978Z" transform="translate(18.655 15.106)"/><path class="c" d="M196.916,192.512h23.518a6.131,6.131,0,0,1,6.219,6.044v.174s-4.477,18.295-4.477,24.439c0,3.37,1.057,13.42,1.057,13.42h-29.09s1.343-10.509,1.318-14.029c0-5.995-4.8-23.842-4.8-23.842a6.131,6.131,0,0,1,6.057-6.219Z" transform="translate(14.49 7.712)"/><path class="d" d="M197.259,223.48c1.169,0,2.326-.2,3.482-.3,1.5-.137,3.01-.112,4.527-.1l24.028.3a7.151,7.151,0,0,1,2.662.361,2.487,2.487,0,0,1,1.642,1.953c.112,1.157-.858,2.1-1.778,2.811a32.821,32.821,0,0,1-14.489,6.343c-8.109,1.38-16.429-.336-24.364-2.487a9.6,9.6,0,0,1-3.569-1.53,23.9,23.9,0,0,1-2.612-3.1,10.224,10.224,0,0,1-1.928-2.388C182.682,220.209,195.393,223.493,197.259,223.48Z" transform="translate(13.015 15.013)"/><path class="b" d="M209.237,197.515a2.686,2.686,0,0,1-2.923,2.338c-2.885-.137-3.084-2.338-3.084-2.338V186.06h6.007Z" transform="translate(17.553 6.143)"/><path class="i" d="M203.23,190.91s3.731,5.87,6.007,3.047V189.38Z" transform="translate(17.553 6.952)"/><path class="b" d="M201.775,191.524c1.5,4.664,8.992,4.8,11.5,1.094a10.236,10.236,0,0,0,1.181-7.462,25.82,25.82,0,0,0-2.288-7.276c-.771-1.443-1.555-2.724-3.3-2.935a10.385,10.385,0,0,0-5.746,1.244,8.383,8.383,0,0,0-3.731,4.079,8.221,8.221,0,0,0-.261,5.485,16.741,16.741,0,0,0,1.132,2.612,22.962,22.962,0,0,1,1.5,3.159Z" transform="translate(16.471 3.427)"/><path class="d" d="M204.658,240a10.1,10.1,0,0,1-2.749,1.53c-2.1.883-6.219,2.487-5.659,4.353.846,2.487,3.731,2.264,5.733,1.679a37.9,37.9,0,0,0,8.631-4.253Z" transform="translate(15.84 19.288)"/><path class="d" d="M208.065,237.849c7.151-5.224,10.882-9.079,18.917-13.967,1.9-1.157,3.221-1.5,6.529-.2,2.823,1.107,2.487,5.957.983,7.985-4.627,6.069-22.387,14.452-26.018,15.72-1.555.547-7.039-4.067-4.813-6.281A38.707,38.707,0,0,1,208.065,237.849Z" transform="translate(17.531 15.108)"/><path class="d" d="M204.44,244.084a24.479,24.479,0,0,0,3.731,3.88c2.487,1.866,4.092,2.487,6.057,1.58,2.861-1.331.236-4.129-1.977-6.355a30.994,30.994,0,0,0-5.634-4.639Z" transform="translate(17.848 18.935)"/><path class="b" d="M205.573,237.48l3.047,2.487a7.313,7.313,0,0,1,1.592,1.853c.995,1.853-2.487,5.634-4.664,3.408s-4.229-4.6-4.229-4.6Z" transform="translate(17.088 18.674)"/><path class="d" d="M201.395,245.073c-8.308-4.179-13.407-5.7-18.743-13.221a8.818,8.818,0,0,1-1.38-6.654c.647-1.928,3.458-3.084,6.778-2.288,2.786.659,21.454,15.285,24.364,18.046,1.244,1.244-2.562,7.126-5.709,6.107a31,31,0,0,1-5.311-1.99Z" transform="translate(12.163 15.061)"/><path class="d" d="M214.772,178.282a6.443,6.443,0,0,1-1.393,2.065,8.022,8.022,0,0,1-4.465,2.176,31.888,31.888,0,0,1-7.462-.249A2.164,2.164,0,0,1,200,184.015a36.288,36.288,0,0,0,1.492,5.062c.6,1.629,1.468,3.122,2.127,4.714-2.04-1.405-3.594-3.806-5.074-5.746a10.809,10.809,0,0,1-1.878-3.1,3.806,3.806,0,0,1,.336-3.482,4.067,4.067,0,0,0,.808-1.182,2.947,2.947,0,0,0,0-1.144,6.094,6.094,0,0,1,2.114-4.788,12.052,12.052,0,0,1,4.776-2.487,10.534,10.534,0,0,1,4.689-.51,7.761,7.761,0,0,1,5.51,5.2A3.035,3.035,0,0,1,214.772,178.282Z" transform="translate(15.886 2.541)"/><path class="b" d="M200.177,185.836a2,2,0,0,0-1.318.846,1.455,1.455,0,0,0-.062,1.119,3.458,3.458,0,0,0,.572.995,2.014,2.014,0,0,0,.46.46,1.928,1.928,0,0,0,1.007.249h.808a.771.771,0,0,0,.4-.112.846.846,0,0,0,.274-.386,2.823,2.823,0,0,0,0-1.754,3.134,3.134,0,0,0-.759-1.43C201.209,185.5,200.637,185.712,200.177,185.836Z" transform="translate(16.452 6.043)"/><rect class="d" width="8.146" height="15.696" rx="1.24" transform="translate(245.371 185.984)"/><path class="c" d="M178.3,169.108l-18.245-17.5L152.5,131.76l-6.082,1.169,7.2,23.12,20.4,27.921Z" transform="translate(35.684 32.111)"/><circle class="f" cx="23.394" cy="23.394" r="23.394" transform="translate(324.459 122.978)"/><path class="c" d="M303.312,169.5l.634-4.216a12.163,12.163,0,0,1-6.107-2.749l1.393-2.649a11.193,11.193,0,0,0,5.721,2.612c2.973.448,5.211-.983,5.559-3.358s-1.082-3.943-3.992-5.646c-4.017-2.288-6.368-4.589-5.821-8.208s3.333-5.721,7.263-5.8l.634-4.2,2.587.4-.609,4.03a11.442,11.442,0,0,1,5.211,2.239l-1.43,2.649a10.2,10.2,0,0,0-5.037-2.176c-3.209-.485-4.7,1.244-4.975,2.935-.323,2.164,1.07,3.482,4.465,5.51,4.042,2.363,5.883,4.838,5.36,8.557-.5,3.283-3.221,6.044-7.611,6.131l-.647,4.316Z" transform="translate(40.61 -6.23)"/><rect class="c" width="76.488" height="21.827" transform="matrix(0.98, -0.197, 0.197, 0.98, 82.958, 202.81)"/><rect class="c" width="4.54" height="33.381" transform="translate(306.824 188.165) rotate(-81.72)"/><rect class="c" width="4.54" height="28.195" transform="translate(343.582 193.529) rotate(-81.72)"/><rect class="c" width="4.54" height="25.235" transform="translate(305.482 197.419) rotate(-81.72)"/><rect class="c" width="4.54" height="17.648" transform="translate(333.414 201.485) rotate(-81.72)"/><rect class="c" width="4.54" height="14.663" transform="translate(355.644 204.727) rotate(-81.72)"/><rect class="c" width="4.54" height="35.545" transform="translate(304.144 206.703) rotate(-81.72)"/><rect class="c" width="4.54" height="26.13" transform="translate(344.12 210.937) rotate(-81.95)"/><rect class="c" width="4.54" height="65.344" transform="translate(302.789 215.951) rotate(-81.72)"/><path class="b" d="M227.493,187.324a3.122,3.122,0,0,1,2.487-2.562,4.253,4.253,0,0,1,3.52.995,3.818,3.818,0,0,1,1.244,1.953,5.236,5.236,0,0,1-.149,2.4,8.942,8.942,0,0,1-1.244,3.122c-1.244,1.766-4.179,2.388-5.087,0a12.141,12.141,0,0,1-.087-2.326C228.127,189.687,227.368,188.58,227.493,187.324Z" transform="translate(23.463 5.811)"/><path class="c" d="M214.923,193.178c.174-1.032,1.107-.784,2.985.187a63.429,63.429,0,0,1,12.624,9.179c.261-4.142.336-8.308.224-12.437,2.848-.187,4.49.473,7.176,1.455a64.9,64.9,0,0,1-1.7,17.723c-.522,2.015-1.244,4.316-3.259,4.975-2.487.833-4.714-1.343-6.89-2.711-1.977-1.244-5.211-1.318-6.791-3.01-1.244-1.244-1.381-3.731-1.841-5.323-.771-2.686-1.8-5.41-2.351-8.146A6.07,6.07,0,0,1,214.923,193.178Z" transform="translate(20.4 7.121)"/></g></svg>